<?xml version="1.0" encoding="UTF-8"?>
<svg width="420px" height="426px" viewBox="0 0 420 426" version="1.1" xmlns="http://www.w3.org/2000/svg" xmlns:xlink="http://www.w3.org/1999/xlink">
    <!-- Generator: Sketch 43.2 (39069) - http://www.bohemiancoding.com/sketch -->
    <title>1-smiley</title>
    <desc>Created with Sketch.</desc>
    <defs></defs>
    <g id="Page-1" stroke="none" stroke-width="1" fill="none" fill-rule="evenodd">
        <g id="1-smiley">
            <g id="Group" transform="translate(11.000000, 16.000000)">
                <circle id="Oval" stroke="#000000" stroke-width="15" fill="#F8E81C" cx="199.5" cy="199.5" r="199.5"></circle>
                <polygon id="Path-2" fill="#000000" points="158.351556 153.450877 186.989409 179.962661 170.469884 194.233208 149.34257 181.110686 141.4973 202.277226 109.036185 187.572574 122.320843 153.176292 98.3509268 132.315718 113.643974 113.531525 130.226261 130.105967 142.864992 107.935232 173.126815 122.922314"></polygon>
                <polygon id="Path-3" fill="#000000" points="206.683653 102.009438 221.268011 81.0102637 239.100311 97.922052 254.293985 72.116342 283.109663 90.1840001 268.258566 121.073445 293.256213 147.501547 276.859598 161.654415 253.062277 143.113425 252.502648 170.004398 220.321348 164.531014 234.01919 126.363773"></polygon>
                <path d="M94.7499476,247.018804 L103.071165,243.064787 L99.6610869,233.020226 L60.3955078,242.285491 L63.8474269,252.549719 L77.6028012,250.753153 C77.6028012,250.753153 80.2022009,289.035458 136.628002,322.736125 C136.628002,322.736125 176.72518,349.101464 243.185082,328.437022 C243.185082,328.437022 301.548664,314.443674 326.20635,253.825883 C326.20635,253.825883 343.272428,221.09803 339.514544,181.3905 L347.749463,182.554216 L352.200346,172.554111 L308.400201,166.236053 L308.313903,177.1619 L322.228797,180.20325 C322.228797,180.20325 336.263986,211.712471 287.829901,275.831867 C287.829901,275.831867 256.234382,328.67761 178.872169,318.178023 C178.872169,318.178023 152.227015,322.330786 113.947325,283.970028 C113.947325,283.970028 100.527601,278.603502 91.2906828,247.992542 L94.7499476,247.018804 Z" id="Path-4" fill="#000000"></path>
                <polygon id="Path-5" fill="#000000" points="128.847158 268.402877 89.1234157 301.646342 80.0438446 290.975493 118.33358 260.426675"></polygon>
                <polygon id="Path-6" fill="#000000" points="149.699708 301.432108 136.866703 293.298635 108.631119 329.074522 124.607053 335.765319"></polygon>
                <polygon id="Path-7" fill="#000000" points="170.276106 305.568192 160.374272 345.358805 172.944747 347.502386 180.579166 305.563238"></polygon>
                <polygon id="Path-8" fill="#000000" points="214.951607 304.60373 228.30348 349.566925 236.742825 347.607858 223.485066 302.488631"></polygon>
                <polygon id="Path-9" fill="#000000" points="248.169702 289.557889 262.565503 329.493389 273.723023 325.612405 255.911857 286.977171"></polygon>
                <polygon id="Path-10" fill="#000000" points="272.821386 276.29862 296.501086 311.873896 305.714399 306.603484 280.74434 271.476491"></polygon>
                <polygon id="Path-11" fill="#000000" points="291.885906 246.956704 327.676654 280.918411 333.863443 272.916204 294.410899 239.667785"></polygon>
                <polygon id="Path-12" fill="#000000" points="306.02284 217.895537 343.32685 235.622495 348.802827 227.321845 306.521895 209.454953"></polygon>
                <polygon id="Path-13" fill="#000000" points="109.564735 76.3392723 118.00811 84.53479 68.013957 127.148481 62.9588557 115.343962"></polygon>
                <polygon id="Path-14" fill="#000000" points="87.2542169 80.8715408 112.447182 108.934311 115.366734 105.573101 90.5619432 78.774919"></polygon>
                <polygon id="Path-15" fill="#000000" points="72.5814429 92.4563946 97.4353222 119.536455 99.7880198 116.380126 76.426021 89.5784012"></polygon>
                <polygon id="Path-16" fill="#000000" points="62.3589237 106.569544 84.3231701 129.89207 87.8205875 123.224153 65.4757799 102.105036"></polygon>
            </g>
        </g>
    </g>
</svg>